<svg t="1628260559523" class="icon" viewBox="0 0 1024 1024" version="1.1" xmlns="http://www.w3.org/2000/svg" p-id="1130" width="200" height="200"><path d="M85.333333 859.306667m32 0l789.333334 0q32 0 32 32l0 0q0 32-32 32l-789.333334 0q-32 0-32-32l0 0q0-32 32-32Z" p-id="1131" fill="#2c2c2c"></path><path d="M725.333333 100.693333m42.666667 0l0 0q42.666667 0 42.666667 42.666667l0 554.666667q0 42.666667-42.666667 42.666666l0 0q-42.666667 0-42.666667-42.666666l0-554.666667q0-42.666667 42.666667-42.666667Z" p-id="1132" fill="#2c2c2c"></path><path d="M469.333333 129.28m42.666667 0l0 0q42.666667 0 42.666667 42.666667l0 526.506666q0 42.666667-42.666667 42.666667l0 0q-42.666667 0-42.666667-42.666667l0-526.506666q0-42.666667 42.666667-42.666667Z" p-id="1133" fill="#2c2c2c"></path><path d="M213.333333 317.44m42.666667 0l0 0q42.666667 0 42.666667 42.666667l0 338.346666q0 42.666667-42.666667 42.666667l0 0q-42.666667 0-42.666667-42.666667l0-338.346666q0-42.666667 42.666667-42.666667Z" p-id="1134" fill="#2c2c2c"></path></svg>