<svg t="1628427964697" class="icon" viewBox="0 0 1024 1024" version="1.1" xmlns="http://www.w3.org/2000/svg" p-id="9861" width="200" height="200"><path d="M877.824 168.192a521.728 521.728 0 0 0-731.136 0A477.952 477.952 0 0 0 0 503.296a424.96 424.96 0 0 0 25.6 145.408 517.12 517.12 0 0 0 66.048 125.696l-61.696 158.208a48.64 48.64 0 0 0 10.24 51.2 45.568 45.568 0 0 0 34.56 16.128 47.872 47.872 0 0 0 16.384-1.536L281.6 934.656a530.176 530.176 0 0 0 230.4 52.992 518.144 518.144 0 0 0 365.056-149.504A478.208 478.208 0 0 0 1024 502.784a477.696 477.696 0 0 0-146.176-334.592zM204.8 758.784L175.616 719.36A365.568 365.568 0 0 1 119.04 614.4a339.712 339.712 0 0 1-19.2-111.36A370.944 370.944 0 0 1 220.416 236.032a423.936 423.936 0 0 1 583.68 0 371.2 371.2 0 0 1 120.576 266.752 371.968 371.968 0 0 1-120.576 267.776A429.568 429.568 0 0 1 512 887.04a413.184 413.184 0 0 1-191.744-46.08l-32-15.104-126.208 43.008z" p-id="9862" fill="#000000"></path><path d="M386.304 486.4a61.696 61.696 0 0 0-66.816-66.304A62.208 62.208 0 1 0 386.304 486.4zM758.272 542.208a62.208 62.208 0 1 0 18.944-122.368 61.44 61.44 0 0 0-66.816 66.56 62.72 62.72 0 0 0 47.872 55.808zM534.016 542.208a62.208 62.208 0 1 0 18.944-122.368A61.44 61.44 0 0 0 486.4 486.4a62.72 62.72 0 0 0 47.616 55.808z" p-id="9863" fill="#000000"></path></svg>