<svg t="1628427828398" class="icon" viewBox="0 0 1024 1024" version="1.1" xmlns="http://www.w3.org/2000/svg" p-id="8123" width="200" height="200"><path d="M132.608 994.304L128 128.512c0-29.184 11.264-56.832 31.744-77.312s48.128-31.744 76.8-31.744h552.448c29.184 0 56.32 11.264 76.8 31.744s31.744 48.128 31.744 76.8v863.744L516.096 675.84l-383.488 318.464zM237.056 96.256c-8.704 0-16.896 3.584-22.528 9.216S204.8 119.808 204.8 128.512l3.584 702.976 307.2-255.488 305.664 252.928V128.512c0-8.704-3.584-16.896-9.216-22.528s-14.336-9.216-22.528-9.216H237.056z" p-id="8124" fill="#000000"></path></svg>