<svg t="1628676898715" class="icon" viewBox="0 0 1024 1024" version="1.1" xmlns="http://www.w3.org/2000/svg" p-id="2761" width="200" height="200"><path d="M422.912 476.245333a171.349333 171.349333 0 0 1 0 71.509334l216.362667 108.16a170.666667 170.666667 0 1 1-38.186667 76.330666l-216.362667-108.16a170.666667 170.666667 0 1 1 0-224.128l216.32-108.202666a170.666667 170.666667 0 1 1 38.186667 76.330666l-216.32 108.16zM256 597.333333a85.333333 85.333333 0 1 0 0-170.666666 85.333333 85.333333 0 0 0 0 170.666666z m512-256a85.333333 85.333333 0 1 0 0-170.666666 85.333333 85.333333 0 0 0 0 170.666666z m0 512a85.333333 85.333333 0 1 0 0-170.666666 85.333333 85.333333 0 0 0 0 170.666666z" p-id="2762" fill="#000000"></path></svg>