<svg t="1628260450976" class="icon" viewBox="0 0 1024 1024" version="1.1" xmlns="http://www.w3.org/2000/svg" p-id="838" width="200" height="200"><path d="M274.346667 149.333333m29.013333 0l1.706667 0q29.013333 0 29.013333 29.013334l0 130.133333q0 29.013333-29.013333 29.013333l-1.706667 0q-29.013333 0-29.013333-29.013333l0-130.133333q0-29.013333 29.013333-29.013334Z" p-id="839" fill="#2c2c2c"></path><path d="M689.92 149.333333m29.013333 0l1.706667 0q29.013333 0 29.013333 29.013334l0 130.133333q0 29.013333-29.013333 29.013333l-1.706667 0q-29.013333 0-29.013333-29.013333l0-130.133333q0-29.013333 29.013333-29.013334Z" p-id="840" fill="#2c2c2c"></path><path d="M436.48 555.093333m29.013333 0l93.013334 0q29.013333 0 29.013333 29.013334l0 0q0 29.013333-29.013333 29.013333l-93.013334 0q-29.013333 0-29.013333-29.013333l0 0q0-29.013333 29.013333-29.013334Z" p-id="841" fill="#2c2c2c"></path><path d="M209.493333 555.093333m29.013334 0l93.013333 0q29.013333 0 29.013333 29.013334l0 0q0 29.013333-29.013333 29.013333l-93.013333 0q-29.013333 0-29.013334-29.013333l0 0q0-29.013333 29.013334-29.013334Z" p-id="842" fill="#2c2c2c"></path><path d="M663.04 555.093333m29.013333 0l93.013334 0q29.013333 0 29.013333 29.013334l0 0q0 29.013333-29.013333 29.013333l-93.013334 0q-29.013333 0-29.013333-29.013333l0 0q0-29.013333 29.013333-29.013334Z" p-id="843" fill="#2c2c2c"></path><path d="M436.48 671.146667m29.013333 0l93.013334 0q29.013333 0 29.013333 29.013333l0 0q0 29.013333-29.013333 29.013333l-93.013334 0q-29.013333 0-29.013333-29.013333l0 0q0-29.013333 29.013333-29.013333Z" p-id="844" fill="#2c2c2c"></path><path d="M209.493333 671.146667m29.013334 0l93.013333 0q29.013333 0 29.013333 29.013333l0 0q0 29.013333-29.013333 29.013333l-93.013333 0q-29.013333 0-29.013334-29.013333l0 0q0-29.013333 29.013334-29.013333Z" p-id="845" fill="#2c2c2c"></path><path d="M663.04 671.146667m29.013333 0l93.013334 0q29.013333 0 29.013333 29.013333l0 0q0 29.013333-29.013333 29.013333l-93.013334 0q-29.013333 0-29.013333-29.013333l0 0q0-29.013333 29.013333-29.013333Z" p-id="846" fill="#2c2c2c"></path><path d="M115.2 372.053333m21.333333 0l750.933334 0q21.333333 0 21.333333 21.333334l0 15.36q0 21.333333-21.333333 21.333333l-750.933334 0q-21.333333 0-21.333333-21.333333l0-15.36q0-21.333333 21.333333-21.333334Z" p-id="847" fill="#2c2c2c"></path><path d="M869.12 874.666667H154.88A68.693333 68.693333 0 0 1 85.333333 806.826667V265.813333a68.693333 68.693333 0 0 1 69.546667-67.84h714.24A68.693333 68.693333 0 0 1 938.666667 265.813333v541.013334a68.693333 68.693333 0 0 1-69.546667 67.84zM154.88 256a9.813333 9.813333 0 0 0-9.813333 9.813333v541.013334a9.813333 9.813333 0 0 0 9.813333 9.813333h714.24a9.813333 9.813333 0 0 0 9.813333-9.813333V265.813333a9.813333 9.813333 0 0 0-9.813333-9.813333z" p-id="848" fill="#2c2c2c"></path></svg>