<svg t="1628260757527" class="icon" viewBox="0 0 1024 1024" version="1.1" xmlns="http://www.w3.org/2000/svg" p-id="1476" width="200" height="200"><path d="M702.368 448.544c-35.04 0-63.456-35.52-63.456-79.328s28.416-79.328 63.456-79.328 63.456 35.52 63.456 79.328-28.416 79.328-63.456 79.328z m-380.736 0c-35.04 0-63.456-35.52-63.456-79.328s28.416-79.328 63.456-79.328 63.456 35.52 63.456 79.328-28.416 79.328-63.456 79.328zM512 987.904c262.816 0 475.904-213.056 475.904-475.904S774.848 36.096 512 36.096 36.096 249.152 36.096 512 249.152 987.904 512 987.904z m0 31.712C231.648 1019.616 4.384 792.352 4.384 512S231.648 4.384 512 4.384 1019.616 231.648 1019.616 512 792.352 1019.616 512 1019.616z m-285.536-444.16h571.072a285.536 285.536 0 0 1-571.072 0z" p-id="1477"></path></svg>